<svg width="172" height="60" viewBox="0 0 172 60" fill="none" xmlns="http://www.w3.org/2000/svg">
<g id="Frame 1">
<g id="Group 5">
<g id="eiva">
<path d="M95.2434 43.4001C94.0928 45.4857 90.2094 51.7424 83.1616 52.4615C75.8262 53.2526 69.7853 49.2253 67.1244 41.6742C65.9019 38.2222 65.758 33.9792 66.621 30.1677H94.8839C93.877 21.4659 85.4629 18.4454 79.422 18.805C71.5113 19.1646 60.1486 24.5582 60.5082 37.0716C60.7959 48.8657 71.2955 54.1875 80.6446 53.756C89.2025 53.3245 93.4456 47.7151 95.7469 43.6159L95.2434 43.4001ZM76.1139 19.5961C83.1616 18.3016 88.771 23.3357 89.7059 29.5923H66.7649C68.1312 24.7021 71.2236 20.531 76.1139 19.5961Z" fill="#3C4043"/>
<path d="M100.943 53.3964H106.552V18.805H100.943V53.3964ZM103.532 12.9798C105.402 12.9798 106.912 11.4696 106.912 9.59979C106.912 7.72998 105.402 6.21976 103.532 6.21976C101.662 6.21976 100.152 7.72998 100.152 9.59979C100.152 11.4696 101.662 12.9798 103.532 12.9798Z" fill="#3C4043"/>
<path d="M140.477 18.805H139.974L128.467 47.2117L116.386 18.805H110.704L125.447 53.3964H131.128L128.755 47.8589L140.477 18.805Z" fill="#3C4043"/>
<path d="M158.335 18.805C152.582 18.805 149.13 21.8255 147.98 25.7089L148.483 25.9246C149.634 22.1131 153.014 19.5242 157.688 19.5242C162.794 19.5242 165.743 24.3425 165.743 29.8081V36.4962C161.284 27.291 140.428 28.0102 140.428 42.681C140.428 49.0096 146.469 53.756 153.301 53.756C160.565 53.756 164.448 48.5781 165.743 43.3282L170.633 53.3964H171.424V30.743C171.424 21.8974 164.304 18.805 158.335 18.805ZM154.883 52.3896C149.921 52.3896 145.606 48.0028 145.606 42.0337C145.606 27.9383 162.938 29.5923 165.743 37.8626V39.5886C165.455 45.7734 161.572 52.3896 154.883 52.3896Z" fill="#3C4043"/>
</g>
<g id="Group 4">
<path id="Vector" d="M30.561 59.1844C21.0767 61.639 13.638 58.4239 7.77655 51.2771C-1.84199 39.5495 -1.7832 20.6339 7.70572 8.78177C16.972 -2.79235 32.1759 -2.94546 41.6776 8.43967C51.4299 20.1251 51.5503 39.4552 41.9392 51.2742C38.9464 54.9545 35.2865 57.692 30.561 59.1844ZM36.813 7.50361C32.6161 3.73695 27.6395 2.35024 22.1461 3.06888C17.6512 3.65689 14.0098 6.03068 10.9742 9.33712C1.84871 19.2764 0.807982 36.7414 8.83019 47.9263C10.5841 50.3716 12.9186 52.4005 15.0042 54.641C18.9995 50.9052 24.3707 50.1852 27.8155 45.5639C26.0858 45.4222 24.9012 45.2592 23.7144 45.2418C21.2999 45.2064 18.8732 45.3954 16.4725 45.2143C14.5575 45.0698 12.8484 44.2824 12.1394 42.0865C18.6371 38.0554 25.0251 34.0924 31.5637 30.0359C32.1788 32.9156 31.6591 35.0003 29.2898 36.4523C36.139 39.3682 38.4182 44.6047 37.3394 51.7997C48.2837 42.2551 50.0689 19.5175 36.813 7.50361Z" fill="#FF522F"/>
<path id="Vector_2" d="M14.9127 31.3515C13.1386 29.2685 15.9277 29.8029 16.0094 28.6523C16.7367 29.2066 17.2228 29.8436 17.8197 29.9743C18.9241 30.2161 20.3321 30.5811 21.1655 30.107C21.9316 29.6712 22.3797 28.2241 22.476 27.1772C22.5979 25.8524 22.2221 24.4818 22.0368 22.9289C22.5624 22.551 23.2299 22.0713 23.8877 21.5985C26.7116 24.3652 26.6738 31.2964 21.7391 34.6148C16.8467 37.9046 11.0245 36.3691 8.39885 31.9632C9.06386 31.489 9.73653 31.0093 10.4921 30.4705C12.291 32.5145 14.3897 33.814 17.4989 33.2664C16.5438 32.5707 15.7804 32.0146 14.9127 31.3515Z" fill="#FF522F"/>
<path id="Vector_3" d="M26.1883 14.758C26.0584 14.8632 25.9114 15.0688 25.8336 15.2168C25.4337 15.9774 24.4481 16.0662 23.843 15.456C23.2806 14.8889 22.7193 14.3228 22.18 13.7789C21.4301 13.0227 21.4261 11.8046 22.171 11.0433C22.5906 10.6145 23.0176 10.1781 23.4338 9.75286C24.1989 8.97097 25.4573 8.97165 26.2215 9.75443C26.6158 10.1584 27.0247 10.5772 27.4394 11.002C28.2553 11.8377 28.1558 13.1954 27.2387 13.9186C26.9044 14.1823 26.5513 14.4637 26.1883 14.758Z" fill="#FF522F"/>
</g>
</g>
</g>
</svg>
